<svg xmlns="http://www.w3.org/2000/svg" width="1021.86" height="144" viewBox="0 0 1021.86 144">
  <defs>
    <style>
      .fd127026-aecf-4c58-b281-d81b53e3b4d3 {
        fill: #e00;
      }

      .fb8f8d32-35da-4c31-8557-a4fb7d941b99 {
        fill: #232f3e;
      }

      .ad8a2bf3-5fea-44ee-b458-648e782913b3 {
        fill: #f90;
        fill-rule: evenodd;
      }
    </style>
  </defs>
  <g id="e7945cb5-011b-4e09-a0fe-f81b3e8fac2e" data-name="Lockup A">
    <path id="fb176b97-40c0-479c-bec0-d64ed0887751" data-name="Divider" d="M699.84,146a2.25,2.25,0,0,1-2.25-2.25V4.25a2.25,2.25,0,0,1,4.5,0v139.5A2.25,2.25,0,0,1,699.84,146Z" transform="translate(-2 -2)"/>
    <g id="ada4d7fd-213c-469f-8930-02c7b2162df3" data-name="Red Hat Logo">
      <path class="fd127026-aecf-4c58-b281-d81b53e3b4d3" d="M129,85c12.51,0,30.61-2.58,30.61-17.46a14,14,0,0,0-.31-3.42l-7.45-32.36c-1.72-7.12-3.23-10.35-15.73-16.6C126.39,10.19,105.26,2,99,2c-5.82,0-7.55,7.54-14.45,7.54-6.68,0-11.64-5.6-17.89-5.6-6,0-9.91,4.09-12.93,12.5,0,0-8.41,23.72-9.49,27.16A6.43,6.43,0,0,0,44,45.54C44,54.76,80.33,85,129,85m32.55-11.42c1.73,8.19,1.73,9.05,1.73,10.13,0,14-15.74,21.77-36.43,21.77C80,105.47,39.08,78.1,39.08,60a18.45,18.45,0,0,1,1.51-7.33C23.77,53.52,2,56.54,2,75.72,2,107.2,76.59,146,135.65,146c45.28,0,56.7-20.48,56.7-36.65,0-12.72-11-27.16-30.83-35.78" transform="translate(-2 -2)"/>
      <path d="M161.52,73.57c1.73,8.19,1.73,9.05,1.73,10.13,0,14-15.74,21.77-36.43,21.77C80,105.47,39.08,78.1,39.08,60a18.45,18.45,0,0,1,1.51-7.33l3.66-9.06A6.43,6.43,0,0,0,44,45.54C44,54.76,80.33,85,129,85c12.51,0,30.61-2.58,30.61-17.46a14,14,0,0,0-.31-3.42Z" transform="translate(-2 -2)"/>
      <path d="M581.24,94.3c0,11.89,7.15,17.67,20.19,17.67a52.11,52.11,0,0,0,11.89-1.68V96.51a24.84,24.84,0,0,1-7.68,1.16c-5.37,0-7.36-1.68-7.36-6.73V69.8h15.56V55.6H598.28v-18l-17,3.68V55.6H570V69.8h11.25Zm-53,.32c0-3.68,3.69-5.47,9.26-5.47a43.12,43.12,0,0,1,10.1,1.26v7.15A21.51,21.51,0,0,1,537,100.19c-5.46,0-8.73-2.1-8.73-5.57m5.2,17.56c6,0,10.84-1.26,15.36-4.31v3.37h16.82V75.58c0-13.56-9.14-21-24.39-21-8.52,0-16.94,2-26,6.1l6.1,12.52c6.52-2.74,12-4.42,16.83-4.42,7,0,10.62,2.73,10.62,8.31v2.73a49.53,49.53,0,0,0-12.62-1.58c-14.31,0-22.93,6-22.93,16.73,0,9.78,7.78,17.24,20.19,17.24m-92.44-.94h18.09V82.42h30.29v28.82h18.09V37.62H489.43V65.91H459.14V37.62H441.05ZM372.12,83.37c0-8,6.31-14.1,14.62-14.1a17.22,17.22,0,0,1,11.78,4.32V93a16.36,16.36,0,0,1-11.78,4.42c-8.2,0-14.62-6.1-14.62-14.09m26.61,27.87h16.83V33.94l-17,3.68V58.55a28.3,28.3,0,0,0-14.2-3.68c-16.19,0-28.92,12.51-28.92,28.5A28.25,28.25,0,0,0,383.8,112a25.12,25.12,0,0,0,14.93-4.83Zm-77.19-42.7c5.36,0,9.88,3.47,11.67,8.83H310c1.68-5.57,5.89-8.83,11.57-8.83M292.83,83.47c0,16.2,13.25,28.82,30.28,28.82,9.36,0,16.2-2.53,23.25-8.42l-11.26-10c-2.63,2.74-6.52,4.21-11.14,4.21a14.39,14.39,0,0,1-13.68-8.83h39.65V85.05c0-17.67-11.88-30.39-28.08-30.39a28.57,28.57,0,0,0-29,28.81M263.49,53.08c6,0,9.36,3.78,9.36,8.31s-3.37,8.31-9.36,8.31H245.61V53.08Zm-36,58.16h18.09V84.42h13.77l13.89,26.82h20.19l-16.2-29.45a22.27,22.27,0,0,0,13.88-20.72c0-13.25-10.41-23.45-26-23.45H227.52Z" transform="translate(-2 -2)"/>
    </g>
    <g>
      <path class="fb8f8d32-35da-4c31-8557-a4fb7d941b99" d="M986.14,77A52.86,52.86,0,0,1,974,75.6a34.52,34.52,0,0,1-9.12-3.22,4.64,4.64,0,0,1-2.9-4.47v-4c0-1.68.6-2.51,1.79-2.51a4.19,4.19,0,0,1,1.45.27q.76.29,2,.84a41.46,41.46,0,0,0,8.7,2.8,46.26,46.26,0,0,0,9.39,1q7.46,0,11.54-2.65a8.5,8.5,0,0,0,4.07-7.53,7.76,7.76,0,0,0-2.14-5.58q-2.14-2.23-7.94-4.2l-11.47-3.62q-8.73-2.79-12.64-8.11A19,19,0,0,1,962.8,23a17.78,17.78,0,0,1,2.14-8.86,21.39,21.39,0,0,1,5.66-6.57,25.12,25.12,0,0,1,8.22-4.12A35.21,35.21,0,0,1,988.76,2a45,45,0,0,1,5.32.35c1.8.24,3.5.55,5.11.91s3.11.79,4.51,1.26A20.45,20.45,0,0,1,1007,5.91a7.55,7.55,0,0,1,2.34,1.94,4.5,4.5,0,0,1,.7,2.65v3.77c0,1.67-.61,2.51-1.8,2.51a8.15,8.15,0,0,1-3-1A36.3,36.3,0,0,0,990,12.74q-6.75,0-10.49,2.23c-2.48,1.49-3.73,3.86-3.73,7.12a7.57,7.57,0,0,0,2.35,5.65q2.34,2.31,8.7,4.4L998,35.77q8.55,2.81,12.24,7.69a18.17,18.17,0,0,1,3.65,11.17,20.23,20.23,0,0,1-2.07,9.29,21.06,21.06,0,0,1-5.73,7.08,25.76,25.76,0,0,1-8.77,4.47A38.46,38.46,0,0,1,986.17,77ZM884.76,74.9a4.86,4.86,0,0,1-3-.76A6.37,6.37,0,0,1,880.06,71L861.56,9.27a13.6,13.6,0,0,1-.69-3.22,1.7,1.7,0,0,1,1.93-1.93h7.73a4.77,4.77,0,0,1,3.1.77A6.75,6.75,0,0,1,875.23,8l13.25,52.81L900.78,8a5.54,5.54,0,0,1,1.52-3.14,5.16,5.16,0,0,1,3.17-.77h6.35a5.09,5.09,0,0,1,3.18.77A5.67,5.67,0,0,1,916.52,8L929,61.48,942.63,8a6.67,6.67,0,0,1,1.59-3.14,4.86,4.86,0,0,1,3.11-.77h7.32A1.7,1.7,0,0,1,956.58,6a6,6,0,0,1-.11,1.27,15.74,15.74,0,0,1-.54,1.93L936.86,71a6.22,6.22,0,0,1-1.66,3.14,4.94,4.94,0,0,1-3,.77H925.4a4.81,4.81,0,0,1-3.18-.84,6.06,6.06,0,0,1-1.51-3.22L908.38,19.46,896.22,70.85a6.06,6.06,0,0,1-1.52,3.22,4.74,4.74,0,0,1-3.17.84Zm-63.39-8.65a25.12,25.12,0,0,0,8.14-1.47,17.28,17.28,0,0,0,7.46-5.1,12.55,12.55,0,0,0,2.69-5.1,26.78,26.78,0,0,0,.76-6.91V44.32A68.45,68.45,0,0,0,833.17,43a57,57,0,0,0-7.39-.48q-7.87,0-11.74,3.22c-2.57,2.14-3.86,5.22-3.86,9.21,0,3.73,1,6.54,2.9,8.45s4.69,2.86,8.29,2.86Zm32-12.16a22.92,22.92,0,0,0,.89,7.13,37.64,37.64,0,0,0,2.58,5.72,3.91,3.91,0,0,1,.55,1.82,3,3,0,0,1-1.52,2.38l-5,3.35a3.94,3.94,0,0,1-2.07.69,3.28,3.28,0,0,1-2.36-1.11,18.54,18.54,0,0,1-2.82-3.71c-.79-1.35-1.59-2.9-2.42-4.67q-9.25,11-23.19,11-9.95,0-15.74-5.73t-5.79-15.36q0-10.2,7.18-16.41T823.06,33a58.64,58.64,0,0,1,8.37.65c2.91.42,5.92,1,9.05,1.74V29.54q0-9.08-3.73-12.78c-2.48-2.46-6.78-3.71-12.9-3.72a35.76,35.76,0,0,0-8.49,1.05,58.8,58.8,0,0,0-8.5,2.72,23,23,0,0,1-2.76,1.05,5.83,5.83,0,0,1-1.25.21q-1.65,0-1.65-2.52V11.64a5.19,5.19,0,0,1,.55-2.79A5.79,5.79,0,0,1,804,7.17a51.75,51.75,0,0,1,9.95-3.63A48,48,0,0,1,826.2,2q14.09,0,20.65,6.5t6.57,19.62Z" transform="translate(-2 -2)"/>
      <path class="ad8a2bf3-5fea-44ee-b458-648e782913b3" d="M1001.06,116.3c-26,19.39-63.65,29.7-96.1,29.7a172.8,172.8,0,0,1-117.38-45.28c-2.44-2.22-.27-5.26,2.66-3.54C823.67,116.87,865,128.7,907.7,128.7a231.48,231.48,0,0,0,89.59-18.54C1001.68,108.27,1005.37,113.09,1001.06,116.3Z" transform="translate(-2 -2)"/>
      <path class="ad8a2bf3-5fea-44ee-b458-648e782913b3" d="M1011.87,103.82c-3.33-4.3-22-2-30.35-1-2.54.31-2.93-1.93-.64-3.56,14.87-10.56,39.24-7.51,42.08-4s-.76,28.27-14.69,40.06c-2.15,1.82-4.18.85-3.23-1.55,3.15-7.92,10.17-25.65,6.84-30Z" transform="translate(-2 -2)"/>
    </g>
  </g>
</svg>
