<svg id="Logos" xmlns="http://www.w3.org/2000/svg" viewBox="0 0 1260.26 244"><defs><style>.cls-1{fill:#e00;}</style></defs><title>Logo-Red_Hat-Open_Innovation_Labs-A-Standard-RGB</title><path d="M263.39,220.68c-21.21,0-37.86-16.53-37.86-37.54s16.65-37.55,37.86-37.55,38,16.54,38,37.55S284.61,220.68,263.39,220.68Zm0-65c-15.08,0-26.73,11.86-26.73,27.46s11.65,27.45,26.73,27.45,26.83-12,26.83-27.45S278.58,155.68,263.39,155.68Z"/><path d="M311.75,166.6h10.3v5.1a24.12,24.12,0,0,1,16.22-5.93c15,0,26.73,12,26.73,27.25s-11.75,27.35-26.94,27.35a26.72,26.72,0,0,1-15.91-5.2v25.9h-10.4Zm10.4,14.56v23.92c3.33,3.85,8.84,6.24,14.77,6.24,10.19,0,17.89-7.8,17.89-18.2s-7.8-18.3-17.89-18.3C330.89,174.82,325.58,177.11,322.15,181.16Z"/><path d="M400.46,220.47c-15.6,0-27.77-12-27.77-27.45,0-15.29,11.65-27.25,26.52-27.25,14.56,0,25.59,12.06,25.59,27.66v3H383a17.85,17.85,0,0,0,17.89,15.18A20.51,20.51,0,0,0,414.29,207l6.66,6.56A31.59,31.59,0,0,1,400.46,220.47Zm-17.37-31.82H414.5c-1.56-8.11-7.8-14.15-15.49-14.15C391,174.5,384.65,180.23,383.09,188.65Z"/><path d="M434.68,166.6h10.4v5.3A21.8,21.8,0,0,1,461,165.56c12.17,0,20.7,8.42,20.7,20.7v33.28h-10.4V188c0-8.32-5.1-13.42-13.11-13.42a15,15,0,0,0-13.1,6.86v38.07h-10.4Z"/><path d="M516.63,146.74h10.92v72.8H516.63Z"/><path d="M541.17,166.6h10.4v5.3a21.8,21.8,0,0,1,15.91-6.34c12.17,0,20.7,8.42,20.7,20.7v33.28h-10.4V188c0-8.32-5.1-13.42-13.11-13.42a15,15,0,0,0-13.1,6.86v38.07h-10.4Z"/><path d="M600.14,166.6h10.4v5.3a21.78,21.78,0,0,1,15.91-6.34c12.17,0,20.7,8.42,20.7,20.7v33.28h-10.4V188c0-8.32-5.1-13.42-13.11-13.42a15,15,0,0,0-13.1,6.86v38.07h-10.4Z"/><path d="M684.27,165.56A27.51,27.51,0,1,1,656.71,193,27.18,27.18,0,0,1,684.27,165.56ZM701.54,193c0-10.3-7.7-18.31-17.27-18.31s-17.37,8-17.37,18.31,7.6,18.41,17.37,18.41C693.84,211.43,701.54,203.31,701.54,193Z"/><path d="M713.7,166.6h11.44l16.54,39.63,16.54-39.63h11.12l-22.88,52.94h-9.88Z"/><path d="M773.09,204.35c0-10,8.11-16.12,21.42-16.12A37.23,37.23,0,0,1,809,191.15v-5.62c0-7.49-4.47-11.23-12.9-11.23-4.89,0-9.88,1.35-16.43,4.47l-3.85-7.8c7.9-3.75,14.77-5.41,21.74-5.41,13.73,0,21.63,6.76,21.63,18.93v35H809V215a25.1,25.1,0,0,1-16.44,5.51C781,220.47,773.09,213.92,773.09,204.35Zm21.84,8.43a20.41,20.41,0,0,0,14-5v-9.16a27.55,27.55,0,0,0-13.63-3.22c-7.59,0-12.27,3.43-12.27,8.74C783.07,209.24,787.85,212.78,794.93,212.78Z"/><path d="M835.9,175.34H824.67V166.6H835.9V153.08l10.3-2.5v16h15.6v8.74H846.2V204c0,5.41,2.18,7.39,7.8,7.39a20.55,20.55,0,0,0,7.59-1.25v8.73a34.32,34.32,0,0,1-9.88,1.56c-10.29,0-15.81-4.88-15.81-14Z"/><path d="M868.35,151.62a6.39,6.39,0,0,1,6.34-6.44,6.45,6.45,0,1,1,0,12.89A6.39,6.39,0,0,1,868.35,151.62Zm11.54,67.92h-10.4V166.6h10.4Z"/><path d="M917.33,165.56A27.51,27.51,0,1,1,889.77,193,27.17,27.17,0,0,1,917.33,165.56ZM934.6,193c0-10.3-7.7-18.31-17.27-18.31S900,182.72,900,193s7.59,18.41,17.36,18.41C926.9,211.43,934.6,203.31,934.6,193Z"/><path d="M954.67,166.6h10.4v5.3A21.8,21.8,0,0,1,981,165.56c12.17,0,20.7,8.42,20.7,20.7v33.28h-10.4V188c0-8.32-5.1-13.42-13.11-13.42a15,15,0,0,0-13.1,6.86v38.07h-10.4Z"/><path d="M1036.62,146.74h10.92v63.13h41.91v9.67h-52.83Z"/><path d="M1096.52,204.35c0-10,8.11-16.12,21.43-16.12a37.22,37.22,0,0,1,14.45,2.92v-5.62c0-7.49-4.47-11.23-12.89-11.23-4.89,0-9.88,1.35-16.44,4.47l-3.84-7.8c7.9-3.75,14.77-5.41,21.73-5.41,13.73,0,21.64,6.76,21.64,18.93v35h-10.2V215a25.07,25.07,0,0,1-16.43,5.51C1104.43,220.47,1096.52,213.92,1096.52,204.35Zm21.84,8.43a20.38,20.38,0,0,0,14-5v-9.16a27.51,27.51,0,0,0-13.62-3.22c-7.59,0-12.27,3.43-12.27,8.74C1106.51,209.24,1111.29,212.78,1118.36,212.78Z"/><path d="M1180.87,220.37a26.48,26.48,0,0,1-16-5.3v4.47h-10.3v-72.8l10.4-2.29v27.14a24.56,24.56,0,0,1,16.13-5.82c15,0,26.72,12,26.72,27.25S1196.05,220.37,1180.87,220.37ZM1165,181.16v23.92c3.33,3.85,8.85,6.24,14.77,6.24,10.2,0,17.89-7.8,17.89-18.2s-7.8-18.3-17.89-18.3C1173.69,174.82,1168.39,177.11,1165,181.16Z"/><path d="M1218.31,205.81c5.51,4.37,11.33,6.66,17.26,6.66,7.49,0,12.69-3.23,12.69-7.91,0-3.74-2.71-5.93-8.53-6.76l-9.57-1.35c-10.5-1.56-15.81-6.45-15.81-14.66,0-9.57,8.32-16,20.7-16a36.28,36.28,0,0,1,21.32,6.76l-5.3,6.86c-5.83-3.84-11.13-5.51-16.75-5.51-6.34,0-10.61,2.91-10.61,7.18,0,3.85,2.5,5.72,8.74,6.65l9.57,1.36c10.5,1.56,16,6.55,16,14.76,0,9.47-9.56,16.64-22.15,16.64-9.15,0-17.37-2.7-23.19-7.8Z"/><path class="cls-1" d="M129,85c12.51,0,30.61-2.58,30.61-17.46a14,14,0,0,0-.31-3.42l-7.45-32.36c-1.72-7.12-3.23-10.35-15.73-16.6C126.39,10.19,105.26,2,99,2c-5.82,0-7.55,7.54-14.45,7.54-6.68,0-11.64-5.6-17.89-5.6-6,0-9.91,4.09-12.93,12.5,0,0-8.41,23.72-9.49,27.16A6.43,6.43,0,0,0,44,45.54C44,54.76,80.33,85,129,85m32.55-11.42c1.73,8.19,1.73,9.05,1.73,10.13,0,14-15.74,21.77-36.43,21.77C80,105.47,39.08,78.1,39.08,60a18.45,18.45,0,0,1,1.51-7.33C23.77,53.52,2,56.54,2,75.72,2,107.2,76.59,146,135.65,146c45.28,0,56.7-20.48,56.7-36.65,0-12.72-11-27.16-30.83-35.78"/><path d="M161.52,73.57c1.73,8.19,1.73,9.05,1.73,10.13,0,14-15.74,21.77-36.43,21.77C80,105.47,39.08,78.1,39.08,60a18.45,18.45,0,0,1,1.51-7.33l3.66-9.06A6.43,6.43,0,0,0,44,45.54C44,54.76,80.33,85,129,85c12.51,0,30.61-2.58,30.61-17.46a14,14,0,0,0-.31-3.42Z"/><path d="M581.24,94.3c0,11.89,7.15,17.67,20.19,17.67a52.11,52.11,0,0,0,11.89-1.68V96.51a24.84,24.84,0,0,1-7.68,1.16c-5.37,0-7.36-1.68-7.36-6.73V69.8h15.56V55.6H598.28v-18l-17,3.68V55.6H570V69.8h11.25Zm-53,.32c0-3.68,3.69-5.47,9.26-5.47a43.12,43.12,0,0,1,10.1,1.26v7.15A21.51,21.51,0,0,1,537,100.19c-5.46,0-8.73-2.1-8.73-5.57m5.2,17.56c6,0,10.84-1.26,15.36-4.31v3.37h16.82V75.58c0-13.56-9.14-21-24.39-21-8.52,0-16.94,2-26,6.1l6.1,12.52c6.52-2.74,12-4.42,16.83-4.42,7,0,10.62,2.73,10.62,8.31v2.73a49.53,49.53,0,0,0-12.62-1.58c-14.31,0-22.93,6-22.93,16.73,0,9.78,7.78,17.24,20.19,17.24m-92.44-.94h18.09V82.42h30.29v28.82h18.09V37.62H489.43V65.91H459.14V37.62H441.05ZM372.12,83.37c0-8,6.31-14.1,14.62-14.1a17.22,17.22,0,0,1,11.78,4.32V93a16.36,16.36,0,0,1-11.78,4.42c-8.2,0-14.62-6.1-14.62-14.09m26.61,27.87h16.83V33.94l-17,3.68V58.55a28.3,28.3,0,0,0-14.2-3.68c-16.19,0-28.92,12.51-28.92,28.5A28.25,28.25,0,0,0,383.8,112a25.12,25.12,0,0,0,14.93-4.83Zm-77.19-42.7c5.36,0,9.88,3.47,11.67,8.83H310c1.68-5.57,5.89-8.83,11.57-8.83M292.83,83.47c0,16.2,13.25,28.82,30.28,28.82,9.36,0,16.2-2.53,23.25-8.42l-11.26-10c-2.63,2.74-6.52,4.21-11.14,4.21a14.39,14.39,0,0,1-13.68-8.83h39.65V85.05c0-17.67-11.88-30.39-28.08-30.39a28.57,28.57,0,0,0-29,28.81M263.49,53.08c6,0,9.36,3.78,9.36,8.31s-3.37,8.31-9.36,8.31H245.61V53.08Zm-36,58.16h18.09V84.42h13.77l13.89,26.82h20.19l-16.2-29.45a22.27,22.27,0,0,0,13.88-20.72c0-13.25-10.41-23.45-26-23.45H227.52Z"/></svg>